:SAMPLES-PER-SECOND 30
:FULLY-SPECIFIED
:DEGREES
251
root  -7.93869 34.9826 -28.6924 -171.207 67.577 -177.656
RightUpLeg  -3.35723 -13.9228 -1.18171
RightLeg  -0.64422 3.20964 -0.24286
RightFoot  9.66242 0.0105542 0.616463
RightToes  -28.5437 -0.136855 -0.238188
Spine  -3.1219 1.8021 -1.96228
Spine1  -5.91972 3.22136 -2.89936
HEad  -68.1504 -27.0857 4.64796
LeftShoulder1  -1.94126e-019 -3.10601e-018 -2.51263e-017
LeftArm  33.6336 13.3077 -73.934
LeftForeArm  62.5598 -77.8434 -52.6539
LeftHand  0.0794818 -5.99699 -0.478259
RightShoulder  -4.96962e-017 0 -2.36833e-017
RightArm  1.87758 41.3335 84.7553
RightForeArm  42.0556 52.9379 11.5935
RightHand  -0.12574 -4.01054 -9.31554
LeftUpLeg  -3.00245 11.6491 -0.128487
LeftLeg  5.40457 26.2371 0.761095
LeftFoot  2.23617 -0.021361 1.25608
LeftToes  -8.84768 2.25955e-006 -3.67304e-008
252
root  -7.95877 34.9789 -28.6702 -171.147 67.5453 -177.481
RightUpLeg  -3.29065 -14.0455 -1.10831
RightLeg  -0.645111 3.30261 -0.249911
RightFoot  9.63018 0.00895814 0.63196
RightToes  -28.4668 -0.136416 -0.237719
Spine  -2.995 1.95208 -2.06879
Spine1  -5.67341 3.52971 -3.10691
HEad  -69.1886 -28.0115 6.5804
LeftShoulder1  -1.94126e-019 -3.10601e-018 -2.51263e-017
LeftArm  34.4058 12.5831 -73.6986
LeftForeArm  63.9138 -78.0139 -53.6168
LeftHand  0.0969433 -6.09484 -0.645156
RightShoulder  -4.96962e-017 0 -2.36833e-017
RightArm  1.37781 38.8434 81.5603
RightForeArm  46.1506 57.9389 13.9712
RightHand  -0.220057 -3.01156 -10.2307
LeftUpLeg  -3.48823 11.6579 -0.0342535
LeftLeg  6.59548 26.229 1.28777
LeftFoot  1.73888 -0.0129202 1.01297
LeftToes  -8.48569 2.25955e-006 -3.67304e-008
253
root  -7.9942 34.9701 -28.6545 -170.99 67.1376 -177.372
RightUpLeg  -3.35424 -14.1466 -1.01116
RightLeg  -0.643159 3.02144 -0.228592
RightFoot  9.62624 0.0115664 0.585834
RightToes  -28.6767 -0.13572 -0.237273
Spine  -2.76452 1.81921 -2.07307
Spine1  -5.21187 3.26646 -3.09929
HEad  -71.8678 -27.9933 8.55212
LeftShoulder1  -1.94126e-019 -3.10601e-018 -2.51263e-017
LeftArm  33.6467 12.7174 -73.6274
LeftForeArm  65.206 -78.2233 -55.1451
LeftHand  0.0601404 -5.9429 -0.285562
RightShoulder  -4.96962e-017 0 -2.36833e-017
RightArm  0.444801 35.4937 78.8661
RightForeArm  53.8169 67.811 22.022
RightHand  -0.247567 -3.02198 -11.655
LeftUpLeg  -4.13143 11.8312 0.0390933
LeftLeg  7.62779 25.6687 1.71048
LeftFoot  1.33879 -0.0074567 0.799826
LeftToes  -8.44396 2.25955e-006 -3.67304e-008
254
root  -8.03226 34.9582 -28.644 -170.746 66.7209 -177.322
RightUpLeg  -3.55771 -14.1373 -0.912832
RightLeg  -0.640728 2.61741 -0.197984
RightFoot  9.59191 0.015421 0.520366
RightToes  -28.6472 -0.134717 -0.236847
Spine  -2.62918 1.46891 -1.90661
Spine1  -4.95266 2.58809 -2.76206
HEad  -74.1082 -26.6552 8.95119
LeftShoulder1  -1.94126e-019 -3.10601e-018 -2.51263e-017
LeftArm  31.513 13.9957 -73.9137
LeftForeArm  63.9027 -78.0709 -54.1968
LeftHand  0.0397335 -5.59189 -0.0992335
RightShoulder  -4.96962e-017 0 -2.36833e-017
RightArm  -0.387337 32.5186 78.2218
RightForeArm  68.1885 75.9277 38.1274
RightHand  -0.316503 -2.57449 -12.7295
LeftUpLeg  -4.75215 11.8943 0.0432092
LeftLeg  8.2872 25.2181 1.96459
LeftFoot  1.01678 -0.00420133 0.635102
LeftToes  -8.22515 2.25955e-006 -3.67304e-008
255
root  -8.03216 34.9552 -28.6363 -170.633 66.9279 -177.248
RightUpLeg  -3.75809 -13.6208 -0.87737
RightLeg  -0.3825 2.32581 -0.165358
RightFoot  9.44733 0.0183689 0.466341
RightToes  -28.3479 -0.132712 -0.236437
Spine  -2.63584 1.09908 -1.6948
Spine1  -4.96713 1.84992 -2.32841
HEad  -74.4071 -24.8309 7.80846
LeftShoulder1  -1.94126e-019 -3.10601e-018 -2.51263e-017
LeftArm  29.2915 15.6129 -74.1807
LeftForeArm  60.2341 -77.5226 -50.8451
LeftHand  -0.0200022 -5.03956 0.527115
RightShoulder  -4.96962e-017 0 -2.36833e-017
RightArm  0.75088 31.8615 79.2284
RightForeArm  70.1538 76.9326 42.4326
RightHand  -0.361718 -3.15741 -18.3918
LeftUpLeg  -4.76994 12.2347 0.0683019
LeftLeg  8.25862 25.0965 1.94355
LeftFoot  1.06687 -0.00458639 0.654224
LeftToes  -8.48115 2.25955e-006 -3.67304e-008
256
root  -8.01107 34.9614 -28.6364 -170.555 67.5779 -177.143
RightUpLeg  -3.8435 -13.0151 -0.872521
RightLeg  -0.300572 2.35265 -0.163856
RightFoot  9.50648 0.0171099 0.470935
RightToes  -28.4138 -0.131344 -0.236041
Spine  -2.74109 0.852653 -1.57499
Spine1  -5.16798 1.34698 -2.07515
HEad  -72.6417 -23.7025 6.41514
LeftShoulder1  -1.94126e-019 -3.10601e-018 -2.51263e-017
LeftArm  28.2632 16.4762 -74.0852
LeftForeArm  56.564 -76.9836 -48.2768
LeftHand  -0.090978 -3.5228 1.43648
RightShoulder  -4.96962e-017 0 -2.36833e-017
RightArm  1.80472 33.1309 80.9232
RightForeArm  59.97 73.4942 31.8155
RightHand  -0.00115193 -5.4519 -19.0152
LeftUpLeg  -4.41142 12.5665 0.0728683
LeftLeg  7.76263 25.3875 1.75102
LeftFoot  1.29801 -0.00688652 0.769544
LeftToes  -8.58339 2.25955e-006 -3.67304e-008
257
root  -7.99529 34.965 -28.6385 -170.44 68.5326 -176.948
RightUpLeg  -3.85289 -12.2677 -0.868547
RightLeg  -0.372639 2.51949 -0.178661
RightFoot  9.65824 0.0135078 0.507554
RightToes  -28.4036 -0.130125 -0.235653
Spine  -2.71584 1.05172 -1.49836
Spine1  -5.13466 1.77322 -1.94295
HEad  -70.8467 -23.7199 6.32781
LeftShoulder1  -1.94126e-019 -3.10601e-018 -2.51263e-017
LeftArm  28.4662 16.1258 -73.6395
LeftForeArm  55.4537 -77.3865 -52.1596
LeftHand  -0.110492 -0.837776 2.15851
RightShoulder  -4.96962e-017 0 -2.36833e-017
RightArm  0.915195 33.7488 80.4669
RightForeArm  51.7392 73.4215 33.4824
RightHand  0.406335 -10.0431 -10.9802
LeftUpLeg  -3.9287 12.4449 0.0450787
LeftLeg  7.20005 26.414 1.56576
LeftFoot  1.49385 -0.00957924 0.896382
LeftToes  -8.61388 2.25955e-006 -3.67304e-008
258
root  -7.99346 34.9647 -28.6486 -170.327 69.1007 -176.827
RightUpLeg  -3.79658 -12.1008 -0.87561
RightLeg  -0.642325 2.88674 -0.218385
RightFoot  9.82304 0.0074541 0.577771
RightToes  -28.1645 -0.129037 -0.23527
Spine  -2.60152 1.34013 -1.52202
Spine1  -4.91165 2.3728 -2.00168
HEad  -70.805 -24.192 7.39354
LeftShoulder1  -1.94126e-019 -3.10601e-018 -2.51263e-017
LeftArm  28.0474 15.4948 -72.8826
LeftForeArm  60.0848 -78.4823 -63.3768
LeftHand  -0.0655932 0.623407 1.53318
RightShoulder  -4.96962e-017 0 -2.36833e-017
RightArm  0.727612 32.1891 77.2323
RightForeArm  70.2969 78.2001 51.6359
RightHand  0.199894 -7.69928 -11.3673
LeftUpLeg  -3.6973 12.1267 -0.0185163
LeftLeg  6.87837 27.2811 1.46548
LeftFoot  1.62625 -0.011811 0.993795
LeftToes  -8.69768 2.25955e-006 -3.67304e-008
259
root  -7.99734 34.9681 -28.6653 -170.317 69.0497 -177.017
RightUpLeg  -3.98568 -12.6128 -0.924322
RightLeg  -0.645159 3.32929 -0.251934
RightFoot  9.84867 0.00108136 0.651152
RightToes  -28.3359 -0.128066 -0.23489
Spine  -2.53644 1.30942 -1.6107
Spine1  -4.76315 2.31031 -2.15789
HEad  -71.8455 -23.8695 8.12224
LeftShoulder1  -1.94126e-019 -3.10601e-018 -2.51263e-017
LeftArm  26.1768 15.7812 -72.122
LeftForeArm  73.0967 -79.3631 -79.3981
LeftHand  -0.0242077 0.505553 0.515891
RightShoulder  -4.96962e-017 0 -2.36833e-017
RightArm  0.176517 29.782 74.4333
RightForeArm  124.429 80.8259 100.098
RightHand  -0.0897112 -4.63257 -11.3004
LeftUpLeg  -3.78278 12.471 -0.124061
LeftLeg  6.60802 26.891 1.32358
LeftFoot  1.78316 -0.0140585 1.06003
LeftToes  -8.57685 2.25955e-006 -3.67304e-008
260
root  -8.01817 34.9717 -28.6828 -170.23 68.471 -177.414
RightUpLeg  -4.39798 -13.3264 -0.955808
RightLeg  -0.646099 3.45855 -0.26174
RightFoot  9.84438 -0.00159799 0.67041
RightToes  -28.4532 -0.127197 -0.234507
Spine  -2.60887 0.999601 -1.65215
Spine1  -4.88491 1.68403 -2.19032
HEad  -72.3156 -23.2324 7.87734
LeftShoulder1  -1.94126e-019 -3.10601e-018 -2.51263e-017
LeftArm  23.6371 16.8596 -71.7104
LeftForeArm  86.0763 -79.5331 -92.3796
LeftHand  -0.0344377 -0.0821854 0.746701
RightShoulder  -4.96962e-017 0 -2.36833e-017
RightArm  -0.626793 26.647 72.7746
RightForeArm  159.055 77.5639 134.187
RightHand  -0.370308 -2.29198 -13.6307
LeftUpLeg  -4.25361 12.8909 -0.311139
LeftLeg  6.36254 25.9186 1.1716
LeftFoot  1.97749 -0.0164975 1.11749
LeftToes  -8.60583 2.25955e-006 -3.67304e-008
